<?xml version="1.0" encoding="UTF-8"?>
<svg xmlns="http://www.w3.org/2000/svg" xmlns:xlink="http://www.w3.org/1999/xlink" version="1.1" id="Capa_1" x="0px" y="0px" viewBox="0 0 512 512" style="enable-background:new 0 0 512 512;" xml:space="preserve" width="512" height="512">
<g id="Scalability">
	<path style="fill:none;stroke:#13102E;stroke-width:40;stroke-linecap:round;stroke-linejoin:round;stroke-miterlimit:10;" d="&#10;&#9;&#9;M296,329.125V452c0,22.091-17.909,40-40,40H60c-22.091,0-40-17.909-40-40V256c0-22.091,17.909-40,40-40h122.875"/>
	<path style="fill:none;stroke:#13102E;stroke-width:40;stroke-linecap:round;stroke-linejoin:round;stroke-miterlimit:10;" d="&#10;&#9;&#9;M136,20H80c-33.137,0-60,26.863-60,60v56"/>
	
		<line style="fill:none;stroke:#13102E;stroke-width:40;stroke-linecap:round;stroke-linejoin:round;stroke-miterlimit:10;" x1="216" y1="20" x2="296" y2="20"/>
	<path style="fill:none;stroke:#13102E;stroke-width:40;stroke-linecap:round;stroke-linejoin:round;stroke-miterlimit:10;" d="&#10;&#9;&#9;M376,20h56c33.137,0,60,26.863,60,60v56"/>
	<path style="fill:none;stroke:#13102E;stroke-width:40;stroke-linecap:round;stroke-linejoin:round;stroke-miterlimit:10;" d="&#10;&#9;&#9;M492,376v56c0,33.137-26.863,60-60,60h-56"/>
	
		<line style="fill:none;stroke:#13102E;stroke-width:40;stroke-linecap:round;stroke-linejoin:round;stroke-miterlimit:10;" x1="492" y1="216" x2="492" y2="296"/>
	
		<line style="fill:none;stroke:#13102E;stroke-width:40;stroke-linecap:round;stroke-linejoin:round;stroke-miterlimit:10;" x1="147.716" y1="364.284" x2="400.284" y2="111.716"/>
	
		<polyline style="fill:none;stroke:#13102E;stroke-width:40;stroke-linecap:round;stroke-linejoin:round;stroke-miterlimit:10;" points="&#10;&#9;&#9;136,316 136,376 196,376 &#9;"/>
	
		<polyline style="fill:none;stroke:#13102E;stroke-width:40;stroke-linecap:round;stroke-linejoin:round;stroke-miterlimit:10;" points="&#10;&#9;&#9;352,100 412,100 412,160 &#9;"/>
</g>















</svg>
